<?xml version="1.0" encoding="iso-8859-1"?>
<!-- Generator: Adobe Illustrator 19.0.0, SVG Export Plug-In . SVG Version: 6.00 Build 0)  -->
<svg version="1.1" id="Layer_1" xmlns="http://www.w3.org/2000/svg" xmlns:xlink="http://www.w3.org/1999/xlink" x="0px" y="0px"
	 viewBox="0 0 235.937 235.937" style="enable-background:new 0 0 235.937 235.937;" xml:space="preserve">
<g>
	<g>
		<g id="XMLID_28_">
			<g>
				<path style="fill:#2D213F;" d="M224.248,20.622c15.586,15.554,15.586,40.896,0,56.45L87.969,213.351
					c-0.982,0.982-2.217,1.679-3.548,2.059l-74.317,20.242c-0.697,0.19-1.394,0.285-2.091,0.285c-2.091,0-4.15-0.824-5.67-2.344
					c-2.027-2.027-2.819-5.005-2.059-7.761l20.242-74.285c0.38-1.362,1.077-2.598,2.059-3.58l136.31-136.279
					C166.436,4.15,176.446,0,187.121,0c10.644,0,20.686,4.15,28.225,11.689L224.248,20.622z M216.645,60.727
					c5.259-9.155,4.055-20.971-3.738-28.764l-8.902-8.933c-4.53-4.498-10.517-7.001-16.884-7.001c-4.277,0-8.363,1.14-11.943,3.231
					L216.645,60.727z M200.996,77.674l4.973-4.973l-42.702-42.702l-4.973,4.973L200.996,77.674z M80.905,197.734l108.75-108.75
					l-5.829-5.797L77.896,189.118L80.905,197.734z M65.193,179.139L172.518,71.846l-8.3-8.3l-107.832,107.8l1.869,5.385
					L65.193,179.139z M47.421,157.661L152.877,52.205l-5.924-5.924L38.647,154.589L47.421,157.661z M66.048,203.784l-2.946-8.395
					l-13.78-4.815c-2.312-0.792-4.118-2.629-4.91-4.91l-4.815-13.748l-7.318-2.566l-11.182,41.086l4.403,4.403L66.048,203.784z"/>
				<path style="fill:#EAEEEF;" d="M212.907,31.963c7.793,7.793,8.997,19.609,3.738,28.764L175.179,19.26
					c3.58-2.091,7.666-3.231,11.943-3.231c6.367,0,12.354,2.503,16.884,7.001L212.907,31.963z"/>
				<path style="fill:#FEDE94;" d="M205.969,72.701l-4.972,4.972l-42.702-42.702l4.972-4.972L205.969,72.701z"/>
				<path style="fill:#FEDE94;" d="M189.656,88.983L80.905,197.734l-3.009-8.616L183.827,83.186L189.656,88.983z"/>
				<path style="fill:#F47C6D;" d="M172.518,71.846L65.193,179.139l-6.938-2.408l-1.869-5.385l107.832-107.8L172.518,71.846z"/>
				<path style="fill:#FEDE94;" d="M152.877,52.205L47.421,157.661l-8.774-3.072L146.954,46.282L152.877,52.205z"/>
				<path style="fill:#FEDE94;" d="M63.102,195.39l2.946,8.395L25.5,214.84l-4.403-4.403l11.182-41.086l7.318,2.566l4.815,13.748
					c0.792,2.281,2.598,4.118,4.91,4.91L63.102,195.39z"/>
			</g>
		</g>
		<path style="fill:#C5CBCF;" d="M198.164,18.747c-3.374-1.768-7.134-2.718-11.043-2.718c-4.277,0-8.363,1.14-11.943,3.231
			l30.541,30.541C193.767,32.986,195.614,23.309,198.164,18.747z"/>
	</g>
</g>
<g>
</g>
<g>
</g>
<g>
</g>
<g>
</g>
<g>
</g>
<g>
</g>
<g>
</g>
<g>
</g>
<g>
</g>
<g>
</g>
<g>
</g>
<g>
</g>
<g>
</g>
<g>
</g>
<g>
</g>
</svg>
